# xmcd
#
# Track frame offsets:
#	150
#	13866
#	27478
#	44328
#	62324
#	75894
#	92296
#	109540
#	125418
#	138196
#	154392
#	172760
#	189513
#	206493
#	221480
#	237590
#	254610
#	272184
#	283270
#
# Disc length: 4009 seconds
#
# Revision: 2
# Processed by: cddbd v1.5.2PL0 Copyright (c) Steve Scherf et al.
# Submitted via: audiograbber 1.83.01
#
DISCID=050fa713
DTITLE=Various Artist - Promo Only Country Radio - April 2009
DYEAR=2009
DGENRE=Country
TTITLE0=Dierks Bentley - Sideways (Album Version)
TTITLE1=Alan Jackson - Sissy's Song
TTITLE2=Pat Green - Country Star
TTITLE3=John Rich - Shuttin' Detroit Down
TTITLE4=Sugarland - It Happens (Album Version)
TTITLE5=Jonathan Singleton and The Grove - Livin' In Paradise
TTITLE6=Love And Theft - Runaway
TTITLE7=Chris Young - Gettin' You Home (The Black Dress Song)
TTITLE8=Randy Houser - Boots On
TTITLE9=Caitlin and Will - Even Now
TTITLE10=Tommy Joe Wilson - Tryin' To Find The Sun
TTITLE11=Jessica Simpson - Pray Out Load
TTITLE12=Jessica Harp - Boy Like Me
TTITLE13=Bellamy Brothers - Lord Help Me Be The Kind Of Person (My Dog Thinks I
TTITLE13=Am)
TTITLE14=Julia Burton - What A Women Wants
TTITLE15=Ruthie Foster - Stone Love (Album Version)
TTITLE16=Donna Ulisse - The Trouble With You (Album Version)
TTITLE17=Abrams Brothers - Nashville Skyline Rag (Album Version)
TTITLE18=Billy Currington - Don't  (New Acoustic Version)
EXTD=
EXTT0=
EXTT1=
EXTT2=
EXTT3=
EXTT4=
EXTT5=
EXTT6=
EXTT7=
EXTT8=
EXTT9=
EXTT10=
EXTT11=
EXTT12=
EXTT13=
EXTT14=
EXTT15=
EXTT16=
EXTT17=
EXTT18=
PLAYORDER=
